#N canvas 30 349 1236 309 10;
#X declare -lib mrpeach;
#X obj 18 21 import mrpeach;
#X obj 97 244 udpsend;
#X msg 105 212 disconnect;
#X obj 259 223 packOSC;
#X obj 190 20 tgl 15 0 empty empty empty 17 7 0 10 -262144 -1 -1 0
1;
#X obj 330 23 tgl 15 0 empty empty empty 17 7 0 10 -262144 -1 -1 0
1;
#X obj 475 23 tgl 15 0 empty empty empty 17 7 0 10 -262144 -1 -1 0
1;
#X obj 613 24 tgl 15 0 empty empty empty 17 7 0 10 -262144 -1 -1 0
1;
#X obj 613 51 metro 2500;
#X obj 330 50 metro 8000;
#X obj 190 47 metro 3500;
#X floatatom 247 20 5 0 0 0 - - -;
#X floatatom 387 24 5 0 0 0 - - -;
#X floatatom 538 24 5 0 0 0 - - -;
#X floatatom 670 25 5 0 0 0 - - -;
#X obj 259 197 r msg;
#X obj 190 112 s msg;
#X obj 330 110 s msg;
#X obj 475 108 s msg;
#X obj 613 109 s msg;
#X obj 736 23 tgl 15 0 empty empty empty 17 7 0 10 -262144 -1 -1 0
1;
#X obj 736 50 metro 2500;
#X floatatom 793 24 5 0 0 0 - - -;
#X obj 736 108 s msg;
#X obj 869 21 tgl 15 0 empty empty empty 17 7 0 10 -262144 -1 -1 0
1;
#X obj 869 48 metro 2500;
#X floatatom 926 22 5 0 0 0 - - -;
#X obj 869 106 s msg;
#X obj 1000 20 tgl 15 0 empty empty empty 17 7 0 10 -262144 -1 -1 0
1;
#X obj 1000 47 metro 2500;
#X floatatom 1057 21 5 0 0 0 - - -;
#X obj 1000 105 s msg;
#X obj 471 155 tgl 15 0 empty empty empty 17 7 0 10 -262144 -1 -1 0
1;
#X obj 471 182 metro 2500;
#X floatatom 528 156 5 0 0 0 - - -;
#X obj 471 240 s msg;
#X obj 619 153 tgl 15 0 empty empty empty 17 7 0 10 -262144 -1 -1 0
1;
#X obj 619 180 metro 2500;
#X floatatom 676 154 5 0 0 0 - - -;
#X obj 619 238 s msg;
#X obj 752 152 tgl 15 0 empty empty empty 17 7 0 10 -262144 -1 -1 0
1;
#X obj 752 179 metro 2500;
#X floatatom 809 153 5 0 0 0 - - -;
#X obj 752 237 s msg;
#X obj 892 150 tgl 15 0 empty empty empty 17 7 0 10 -262144 -1 -1 0
1;
#X obj 892 177 metro 2500;
#X floatatom 949 151 5 0 0 0 - - -;
#X obj 892 235 s msg;
#X obj 475 50 metro 7000;
#X msg 89 186 connect localhost 2222;
#X msg 190 82 send /knock 0 1500;
#X msg 330 81 send /knock 1 1479;
#X msg 475 81 send /knock 2 1430;
#X msg 613 79 send /knock 3 1440;
#X msg 736 78 send /knock 4 1440;
#X msg 869 76 send /knock 5 1440;
#X msg 471 210 send /knock 7 1440;
#X msg 619 208 send /knock 8 1440;
#X msg 752 207 send /knock 9 1440;
#X msg 892 205 send /knock 10 1440;
#X msg 1000 75 send /knock 6 1440;
#X obj 92 116 loadbang;
#X connect 2 0 1 0;
#X connect 3 0 1 0;
#X connect 4 0 10 0;
#X connect 5 0 9 0;
#X connect 6 0 48 0;
#X connect 7 0 8 0;
#X connect 8 0 53 0;
#X connect 9 0 51 0;
#X connect 10 0 50 0;
#X connect 11 0 10 1;
#X connect 12 0 9 1;
#X connect 13 0 48 1;
#X connect 14 0 8 1;
#X connect 15 0 3 0;
#X connect 20 0 21 0;
#X connect 21 0 54 0;
#X connect 22 0 21 1;
#X connect 24 0 25 0;
#X connect 25 0 55 0;
#X connect 26 0 25 1;
#X connect 28 0 29 0;
#X connect 29 0 60 0;
#X connect 30 0 29 1;
#X connect 32 0 33 0;
#X connect 33 0 56 0;
#X connect 34 0 33 1;
#X connect 36 0 37 0;
#X connect 37 0 57 0;
#X connect 38 0 37 1;
#X connect 40 0 41 0;
#X connect 41 0 58 0;
#X connect 42 0 41 1;
#X connect 44 0 45 0;
#X connect 45 0 59 0;
#X connect 46 0 45 1;
#X connect 48 0 52 0;
#X connect 49 0 1 0;
#X connect 50 0 16 0;
#X connect 51 0 17 0;
#X connect 52 0 18 0;
#X connect 53 0 19 0;
#X connect 54 0 23 0;
#X connect 55 0 27 0;
#X connect 56 0 35 0;
#X connect 57 0 39 0;
#X connect 58 0 43 0;
#X connect 59 0 47 0;
#X connect 60 0 31 0;
#X connect 61 0 49 0;
