#N canvas 362 254 852 426 10;
#X declare -lib mrpeach;
#X obj 184 47 tgl 15 0 empty empty empty 17 7 0 10 -262144 -1 -1 0
1;
#X msg 184 89 send /knock 1 1;
#X obj 17 17 import mrpeach;
#X obj 48 232 udpsend;
#X msg 57 196 disconnect;
#X msg 48 174 connect localhost 2222;
#X obj 184 111 s msg;
#X obj 134 193 r msg;
#X obj 134 215 packOSC;
#X obj 184 67 metro 3000;
#X obj 198 193 r msg2;
#X obj 198 216 packOSC;
#N canvas 707 175 461 334 leaf 1;
#X msg -3 173 send /knock 1 1;
#X obj -3 228 s msg;
#X obj -3 151 metro 3000;
#X obj 109 126 tgl 15 0 empty empty empty 17 7 0 10 -262144 -1 -1 1
1;
#X obj 151 120 vsl 10 54 100 12000 0 0 empty empty freq 0 -9 0 10 -262144
-1 -1 900 1;
#X obj 186 120 vsl 10 54 0 1500 0 0 empty empty delay 0 -9 0 10 -262144
-1 -1 800 1;
#X obj 334 192 del;
#X floatatom 349 168 5 0 0 0 - - -;
#X obj 284 111 r msg;
#X obj 284 133 t b;
#X obj 284 157 bng 15 250 50 0 empty empty empty 17 7 0 10 -262144
-1 -1;
#X msg 334 217 send /knock 1 0;
#X obj 334 268 s msg2;
#X obj 110 174 bng 15 250 50 0 /knock empty off 17 7 0 10 -262144 -1
-1;
#X obj 110 154 bng 15 250 50 0 /knock empty on 17 7 0 10 -262144 -1
-1;
#X obj 12 204 t b;
#X obj 349 246 t b;
#X floatatom 151 180 5 0 0 0 - - -;
#X floatatom 186 180 5 0 0 0 - - -;
#X obj 121 205 hradio 8 1 0 10 empty empty empty 0 -8 0 10 -262144
-1 -1 9;
#X floatatom 121 252 5 0 0 0 - - -;
#X obj 121 226 + 1;
#X connect 0 0 1 0;
#X connect 0 0 15 0;
#X connect 2 0 0 0;
#X connect 3 0 2 0;
#X connect 4 0 2 1;
#X connect 4 0 17 0;
#X connect 5 0 7 0;
#X connect 5 0 18 0;
#X connect 6 0 11 0;
#X connect 7 0 6 1;
#X connect 8 0 9 0;
#X connect 9 0 10 0;
#X connect 10 0 6 0;
#X connect 11 0 12 0;
#X connect 11 0 16 0;
#X connect 15 0 14 0;
#X connect 16 0 13 0;
#X connect 19 0 21 0;
#X connect 21 0 20 0;
#X coords 0 -1 1 1 120 120 1 100 100;
#X restore 597 119 pd leaf;
#X connect 0 0 9 0;
#X connect 1 0 6 0;
#X connect 4 0 3 0;
#X connect 5 0 3 0;
#X connect 7 0 8 0;
#X connect 8 0 3 0;
#X connect 9 0 1 0;
#X connect 10 0 11 0;
#X connect 11 0 3 0;
